<?xml version="1.0" standalone="no"?>
<svg xmlns:xlink="http://www.w3.org/1999/xlink" id="wave" style="transform:rotate(0deg); transition: 0.3s" viewBox="0 0 1440 270" version="1.1" xmlns="http://www.w3.org/2000/svg"><defs><linearGradient id="sw-gradient-0" x1="0" x2="0" y1="1" y2="0"><stop stop-color="rgba(232.602, 83.037, 35.002, 1)" offset="0%"/><stop stop-color="rgba(234.879, 210.779, 175.927, 1)" offset="100%"/></linearGradient></defs><path style="transform:translate(0, 0px); opacity:1" fill="url(#sw-gradient-0)" d="M0,108L60,112.5C120,117,240,126,360,121.5C480,117,600,99,720,85.5C840,72,960,63,1080,76.5C1200,90,1320,126,1440,157.5C1560,189,1680,216,1800,220.5C1920,225,2040,207,2160,193.5C2280,180,2400,171,2520,175.5C2640,180,2760,198,2880,180C3000,162,3120,108,3240,103.5C3360,99,3480,144,3600,135C3720,126,3840,63,3960,63C4080,63,4200,126,4320,135C4440,144,4560,99,4680,85.5C4800,72,4920,90,5040,99C5160,108,5280,108,5400,112.5C5520,117,5640,126,5760,139.5C5880,153,6000,171,6120,166.5C6240,162,6360,135,6480,112.5C6600,90,6720,72,6840,81C6960,90,7080,126,7200,121.5C7320,117,7440,72,7560,49.5C7680,27,7800,27,7920,22.5C8040,18,8160,9,8280,22.5C8400,36,8520,72,8580,90L8640,108L8640,270L8580,270C8520,270,8400,270,8280,270C8160,270,8040,270,7920,270C7800,270,7680,270,7560,270C7440,270,7320,270,7200,270C7080,270,6960,270,6840,270C6720,270,6600,270,6480,270C6360,270,6240,270,6120,270C6000,270,5880,270,5760,270C5640,270,5520,270,5400,270C5280,270,5160,270,5040,270C4920,270,4800,270,4680,270C4560,270,4440,270,4320,270C4200,270,4080,270,3960,270C3840,270,3720,270,3600,270C3480,270,3360,270,3240,270C3120,270,3000,270,2880,270C2760,270,2640,270,2520,270C2400,270,2280,270,2160,270C2040,270,1920,270,1800,270C1680,270,1560,270,1440,270C1320,270,1200,270,1080,270C960,270,840,270,720,270C600,270,480,270,360,270C240,270,120,270,60,270L0,270Z"/></svg>