<?xml version="1.0" standalone="no"?>
<svg xmlns:xlink="http://www.w3.org/1999/xlink" id="wave" style="transform:rotate(0deg); transition: 0.3s" viewBox="0 0 1440 220" version="1.1" xmlns="http://www.w3.org/2000/svg"><defs><linearGradient id="sw-gradient-0" x1="0" x2="0" y1="1" y2="0"><stop stop-color="rgba(232.602, 83.037, 35.002, 1)" offset="0%"/><stop stop-color="rgba(234.879, 210.779, 175.927, 1)" offset="100%"/></linearGradient></defs><path style="transform:translate(0, 0px); opacity:1" fill="url(#sw-gradient-0)" d="M0,22L30,44C60,66,120,110,180,110C240,110,300,66,360,55C420,44,480,66,540,80.7C600,95,660,103,720,88C780,73,840,37,900,22C960,7,1020,15,1080,47.7C1140,81,1200,139,1260,157.7C1320,176,1380,154,1440,135.7C1500,117,1560,103,1620,99C1680,95,1740,103,1800,121C1860,139,1920,169,1980,168.7C2040,169,2100,139,2160,139.3C2220,139,2280,169,2340,150.3C2400,132,2460,66,2520,66C2580,66,2640,132,2700,135.7C2760,139,2820,81,2880,51.3C2940,22,3000,22,3060,25.7C3120,29,3180,37,3240,47.7C3300,59,3360,73,3420,95.3C3480,117,3540,147,3600,150.3C3660,154,3720,132,3780,135.7C3840,139,3900,169,3960,150.3C4020,132,4080,66,4140,33C4200,0,4260,0,4290,0L4320,0L4320,220L4290,220C4260,220,4200,220,4140,220C4080,220,4020,220,3960,220C3900,220,3840,220,3780,220C3720,220,3660,220,3600,220C3540,220,3480,220,3420,220C3360,220,3300,220,3240,220C3180,220,3120,220,3060,220C3000,220,2940,220,2880,220C2820,220,2760,220,2700,220C2640,220,2580,220,2520,220C2460,220,2400,220,2340,220C2280,220,2220,220,2160,220C2100,220,2040,220,1980,220C1920,220,1860,220,1800,220C1740,220,1680,220,1620,220C1560,220,1500,220,1440,220C1380,220,1320,220,1260,220C1200,220,1140,220,1080,220C1020,220,960,220,900,220C840,220,780,220,720,220C660,220,600,220,540,220C480,220,420,220,360,220C300,220,240,220,180,220C120,220,60,220,30,220L0,220Z"/><defs><linearGradient id="sw-gradient-1" x1="0" x2="0" y1="1" y2="0"><stop stop-color="rgba(93, 30, 45, 1)" offset="0%"/><stop stop-color="rgba(228.049, 48.481, 48.481, 1)" offset="100%"/></linearGradient></defs><path style="transform:translate(0, 50px); opacity:0.9" fill="url(#sw-gradient-1)" d="M0,198L30,179.7C60,161,120,125,180,95.3C240,66,300,44,360,36.7C420,29,480,37,540,58.7C600,81,660,117,720,132C780,147,840,139,900,132C960,125,1020,117,1080,95.3C1140,73,1200,37,1260,18.3C1320,0,1380,0,1440,29.3C1500,59,1560,117,1620,128.3C1680,139,1740,103,1800,77C1860,51,1920,37,1980,29.3C2040,22,2100,22,2160,33C2220,44,2280,66,2340,80.7C2400,95,2460,103,2520,113.7C2580,125,2640,139,2700,132C2760,125,2820,95,2880,84.3C2940,73,3000,81,3060,84.3C3120,88,3180,88,3240,102.7C3300,117,3360,147,3420,157.7C3480,169,3540,161,3600,135.7C3660,110,3720,66,3780,40.3C3840,15,3900,7,3960,7.3C4020,7,4080,15,4140,22C4200,29,4260,37,4290,40.3L4320,44L4320,220L4290,220C4260,220,4200,220,4140,220C4080,220,4020,220,3960,220C3900,220,3840,220,3780,220C3720,220,3660,220,3600,220C3540,220,3480,220,3420,220C3360,220,3300,220,3240,220C3180,220,3120,220,3060,220C3000,220,2940,220,2880,220C2820,220,2760,220,2700,220C2640,220,2580,220,2520,220C2460,220,2400,220,2340,220C2280,220,2220,220,2160,220C2100,220,2040,220,1980,220C1920,220,1860,220,1800,220C1740,220,1680,220,1620,220C1560,220,1500,220,1440,220C1380,220,1320,220,1260,220C1200,220,1140,220,1080,220C1020,220,960,220,900,220C840,220,780,220,720,220C660,220,600,220,540,220C480,220,420,220,360,220C300,220,240,220,180,220C120,220,60,220,30,220L0,220Z"/></svg>