<svg width="961" height="532" viewBox="0 0 961 532" fill="none" xmlns="http://www.w3.org/2000/svg">
<path d="M463.68 210.12C476.399 226.234 483.211 246.222 482.98 266.75C482.98 297.417 472.313 321.69 450.98 339.57C429.646 357.45 399.793 366.407 361.42 366.44H190.68V0H355.68C392.913 0 422.056 8.54 443.11 25.62C464.163 42.7 474.686 65.83 474.68 95.01C474.68 116.59 469.013 134.52 457.68 148.8C446.34 163.08 431.29 172.95 412.54 178.56C433.746 183.093 450.793 193.613 463.68 210.12ZM279.93 148.26H338.42C353.02 148.26 364.23 145.043 372.05 138.61C379.87 132.177 383.793 122.693 383.82 110.16C383.82 97.62 379.9 88.08 372.05 81.43C364.2 74.78 353.05 71.51 338.42 71.51H279.93V148.26ZM380.44 284.26C388.6 277.447 392.68 267.613 392.68 254.76C392.68 241.9 388.43 231.76 379.88 224.46C371.33 217.16 359.6 213.46 344.66 213.46H279.93V294.35H345.68C360.68 294.39 372.26 291.01 380.44 284.25V284.26Z" fill="#F3793E"/>
<path d="M731.821 109.88L596.161 371H484.481L341.141 152.49L411.811 150.81C417.945 150.666 424.017 152.078 429.458 154.915C434.9 157.751 439.535 161.919 442.931 167.03L531.011 299.63L622.681 133.52C626.625 126.363 632.417 120.395 639.452 116.237C646.487 112.079 654.509 109.884 662.681 109.88H731.821Z" fill="#F3793E" stroke="white" stroke-width="7" stroke-miterlimit="10"/>
<path d="M62.7722 444.866C68.0149 445.803 72.4619 448.564 76.1131 453.152C79.7642 457.739 81.5898 462.935 81.5898 468.74C81.5898 473.701 80.2792 478.195 77.6578 482.221C75.13 486.153 71.4321 489.289 66.5638 491.63C61.6956 493.877 56.0316 495 49.5718 495H10.5322V397.401H47.7462C54.3932 397.401 60.104 398.525 64.8787 400.771C69.6533 403.018 73.2576 406.061 75.6918 409.899C78.1259 413.644 79.3429 417.857 79.3429 422.538C79.3429 428.155 77.845 432.836 74.8492 436.581C71.8534 440.326 67.8277 443.088 62.7722 444.866ZM26.5413 438.407H46.3419C51.5846 438.407 55.6571 437.236 58.5593 434.896C61.5552 432.462 63.0531 428.998 63.0531 424.504C63.0531 420.104 61.5552 416.687 58.5593 414.253C55.6571 411.725 51.5846 410.461 46.3419 410.461H26.5413V438.407ZM48.1675 481.94C53.5975 481.94 57.8572 480.629 60.9466 478.008C64.0361 475.387 65.5808 471.735 65.5808 467.054C65.5808 462.28 63.9425 458.488 60.6658 455.68C57.3891 452.871 53.0357 451.467 47.6058 451.467H26.5413V481.94H48.1675ZM139.009 416.359C144.907 416.359 150.15 417.623 154.737 420.151C159.418 422.679 163.07 426.423 165.691 431.385C168.406 436.347 169.763 442.339 169.763 449.36V495H153.895V451.748C153.895 444.82 152.163 439.53 148.699 435.879C145.235 432.134 140.507 430.262 134.515 430.262C128.524 430.262 123.749 432.134 120.192 435.879C116.728 439.53 114.996 444.82 114.996 451.748V495H98.9867V391.082H114.996V426.611C117.711 423.334 121.128 420.806 125.247 419.027C129.46 417.249 134.047 416.359 139.009 416.359ZM184.848 455.96C184.848 448.19 186.439 441.309 189.622 435.317C192.899 429.326 197.299 424.691 202.823 421.415C208.44 418.044 214.619 416.359 221.359 416.359C227.445 416.359 232.734 417.576 237.228 420.01C241.815 422.351 245.467 425.3 248.181 428.857V417.623H264.331V495H248.181V483.485C245.467 487.136 241.769 490.179 237.088 492.613C232.407 495.047 227.07 496.264 221.078 496.264C214.431 496.264 208.346 494.579 202.823 491.208C197.299 487.744 192.899 482.97 189.622 476.885C186.439 470.706 184.848 463.731 184.848 455.96ZM248.181 456.241C248.181 450.905 247.058 446.271 244.811 442.339C242.658 438.407 239.802 435.411 236.245 433.351C232.687 431.292 228.849 430.262 224.73 430.262C220.61 430.262 216.772 431.292 213.214 433.351C209.657 435.317 206.755 438.266 204.508 442.198C202.354 446.037 201.278 450.624 201.278 455.96C201.278 461.297 202.354 465.978 204.508 470.003C206.755 474.029 209.657 477.119 213.214 479.272C216.866 481.331 220.704 482.361 224.73 482.361C228.849 482.361 232.687 481.331 236.245 479.272C239.802 477.212 242.658 474.216 244.811 470.284C247.058 466.259 248.181 461.578 248.181 456.241ZM301.367 428.857C303.708 424.925 306.797 421.883 310.636 419.73C314.568 417.483 319.202 416.359 324.538 416.359V432.93H320.466C314.193 432.93 309.418 434.521 306.142 437.705C302.959 440.888 301.367 446.411 301.367 454.275V495H285.358V417.623H301.367V428.857ZM333.917 455.96C333.917 448.19 335.509 441.309 338.692 435.317C341.969 429.326 346.369 424.691 351.892 421.415C357.51 418.044 363.688 416.359 370.429 416.359C376.514 416.359 381.804 417.576 386.298 420.01C390.885 422.351 394.536 425.3 397.251 428.857V417.623H413.401V495H397.251V483.485C394.536 487.136 390.838 490.179 386.157 492.613C381.476 495.047 376.14 496.264 370.148 496.264C363.501 496.264 357.416 494.579 351.892 491.208C346.369 487.744 341.969 482.97 338.692 476.885C335.509 470.706 333.917 463.731 333.917 455.96ZM397.251 456.241C397.251 450.905 396.128 446.271 393.881 442.339C391.728 438.407 388.872 435.411 385.315 433.351C381.757 431.292 377.919 430.262 373.799 430.262C369.68 430.262 365.842 431.292 362.284 433.351C358.727 435.317 355.824 438.266 353.577 442.198C351.424 446.037 350.348 450.624 350.348 455.96C350.348 461.297 351.424 465.978 353.577 470.003C355.824 474.029 358.727 477.119 362.284 479.272C365.935 481.331 369.774 482.361 373.799 482.361C377.919 482.361 381.757 481.331 385.315 479.272C388.872 477.212 391.728 474.216 393.881 470.284C396.128 466.259 397.251 461.578 397.251 456.241ZM453.105 430.683V473.514C453.105 476.416 453.76 478.523 455.071 479.834C456.475 481.051 458.816 481.659 462.093 481.659H471.923V495H459.284C452.075 495 446.552 493.315 442.713 489.945C438.875 486.574 436.956 481.097 436.956 473.514V430.683H427.828V417.623H436.956V398.384H453.105V417.623H471.923V430.683H453.105ZM570.795 397.401L534.143 495H515.606L478.814 397.401H495.946L524.875 478.57L553.944 397.401H570.795ZM655.1 454.416C655.1 457.318 654.913 459.939 654.539 462.28H595.418C595.886 468.459 598.18 473.421 602.299 477.165C606.418 480.91 611.474 482.783 617.465 482.783C626.078 482.783 632.164 479.178 635.721 471.969H652.994C650.654 479.085 646.394 484.936 640.215 489.523C634.13 494.017 626.546 496.264 617.465 496.264C610.069 496.264 603.422 494.626 597.524 491.349C591.72 487.979 587.132 483.298 583.762 477.306C580.485 471.221 578.847 464.199 578.847 456.241C578.847 448.284 580.439 441.309 583.622 435.317C586.898 429.232 591.439 424.551 597.243 421.274C603.141 417.998 609.882 416.359 617.465 416.359C624.768 416.359 631.274 417.951 636.985 421.134C642.696 424.317 647.143 428.811 650.326 434.615C653.509 440.326 655.1 446.926 655.1 454.416ZM638.389 449.36C638.296 443.462 636.189 438.734 632.07 435.177C627.951 431.619 622.848 429.84 616.763 429.84C611.239 429.84 606.512 431.619 602.58 435.177C598.648 438.641 596.307 443.369 595.558 449.36H638.389ZM686.864 428.857C689.204 424.925 692.294 421.883 696.132 419.73C700.064 417.483 704.699 416.359 710.035 416.359V432.93H705.962C699.69 432.93 694.915 434.521 691.639 437.705C688.456 440.888 686.864 446.411 686.864 454.275V495H670.855V417.623H686.864V428.857ZM752.836 496.264C746.751 496.264 741.274 495.187 736.406 493.034C731.631 490.787 727.84 487.791 725.031 484.046C722.223 480.208 720.725 475.948 720.537 471.267H737.108C737.389 474.544 738.934 477.306 741.742 479.553C744.645 481.706 748.249 482.783 752.556 482.783C757.049 482.783 760.513 481.94 762.947 480.255C765.475 478.476 766.739 476.229 766.739 473.514C766.739 470.612 765.335 468.459 762.526 467.054C759.811 465.65 755.458 464.105 749.466 462.42C743.662 460.829 738.934 459.284 735.283 457.786C731.631 456.288 728.448 453.994 725.733 450.905C723.112 447.816 721.801 443.743 721.801 438.688C721.801 434.568 723.018 430.823 725.453 427.453C727.887 423.989 731.351 421.274 735.844 419.308C740.432 417.342 745.674 416.359 751.573 416.359C760.373 416.359 767.441 418.606 772.777 423.1C778.207 427.5 781.11 433.538 781.484 441.215H765.475C765.194 437.751 763.79 434.99 761.262 432.93C758.734 430.87 755.317 429.84 751.011 429.84C746.798 429.84 743.568 430.636 741.321 432.228C739.074 433.819 737.951 435.926 737.951 438.547C737.951 440.607 738.7 442.339 740.198 443.743C741.696 445.147 743.521 446.271 745.674 447.113C747.828 447.862 751.011 448.845 755.224 450.062C760.841 451.56 765.428 453.105 768.986 454.697C772.637 456.195 775.773 458.441 778.395 461.437C781.016 464.433 782.373 468.412 782.467 473.374C782.467 477.774 781.25 481.706 778.816 485.17C776.382 488.634 772.918 491.349 768.424 493.315C764.024 495.281 758.828 496.264 752.836 496.264ZM807.91 407.372C805.008 407.372 802.574 406.389 800.608 404.423C798.642 402.457 797.659 400.023 797.659 397.12C797.659 394.218 798.642 391.784 800.608 389.818C802.574 387.852 805.008 386.869 807.91 386.869C810.719 386.869 813.106 387.852 815.072 389.818C817.038 391.784 818.021 394.218 818.021 397.12C818.021 400.023 817.038 402.457 815.072 404.423C813.106 406.389 810.719 407.372 807.91 407.372ZM815.774 417.623V495H799.765V417.623H815.774ZM855.47 430.683V473.514C855.47 476.416 856.125 478.523 857.436 479.834C858.84 481.051 861.181 481.659 864.457 481.659H874.287V495H861.649C854.44 495 848.916 493.315 845.078 489.945C841.24 486.574 839.32 481.097 839.32 473.514V430.683H830.192V417.623H839.32V398.384H855.47V417.623H874.287V430.683H855.47ZM958.696 417.623L911.231 531.371H894.66L910.388 493.736L879.915 417.623H897.749L919.516 476.604L942.125 417.623H958.696Z" fill="#F3793E"/>
</svg>
